<svg width="347" height="161" viewBox="0 0 347 161" fill="none" xmlns="http://www.w3.org/2000/svg">
<path d="M54.8734 104.747C82.4177 104.747 104.747 82.4177 104.747 54.8734C104.747 27.3291 82.4177 5 54.8734 5C27.3291 5 5 27.3291 5 54.8734C5 82.4177 27.3291 104.747 54.8734 104.747Z" stroke="white" stroke-width="9.5"/>
<path d="M173.354 104.747C200.899 104.747 223.228 82.4177 223.228 54.8734C223.228 27.3291 200.899 5 173.354 5C145.81 5 123.481 27.3291 123.481 54.8734C123.481 82.4177 145.81 104.747 173.354 104.747Z" stroke="white" stroke-width="9.5"/>
<path d="M291.835 104.747C319.38 104.747 341.709 82.4177 341.709 54.8734C341.709 27.3291 319.38 5 291.835 5C264.291 5 241.962 27.3291 241.962 54.8734C241.962 82.4177 264.291 104.747 291.835 104.747Z" stroke="white" stroke-width="9.5"/>
<path d="M114.114 155.38C141.658 155.38 163.987 133.051 163.987 105.506C163.987 77.962 141.658 55.6329 114.114 55.6329C86.5696 55.6329 64.2405 77.962 64.2405 105.506C64.2405 133.051 86.5696 155.38 114.114 155.38Z" stroke="white" stroke-width="9.5"/>
<path d="M232.595 155.38C260.139 155.38 282.468 133.051 282.468 105.506C282.468 77.962 260.139 55.6329 232.595 55.6329C205.051 55.6329 182.722 77.962 182.722 105.506C182.722 133.051 205.051 155.38 232.595 155.38Z" stroke="white" stroke-width="9.5"/>
<path d="M94.7722 24.9494C101.247 33.5823 104.747 44.0823 104.747 54.8734C104.747 65.6645 101.247 76.1646 94.7722 84.7975" stroke="white" stroke-width="9.5"/>
<path d="M213.253 24.9494C219.728 33.5823 223.228 44.0823 223.228 54.8734C223.228 65.6645 219.728 76.1646 213.253 84.7975M173.354 104.747C162.563 104.747 152.063 101.247 143.43 94.7722" stroke="white" stroke-width="9.5"/>
<path d="M291.835 104.747C281.044 104.747 270.544 101.247 261.911 94.7722" stroke="white" stroke-width="9.5"/>
</svg>
